# xmcd
#
# Track frame offsets:
#	150
#	14179
#	31391
#	51732
#	72528
#	94597
#	113562
#	132955
#	148112
#	167190
#	184727
#	193349
#	211021
#	224920
#	239529
#	259097
#	270033
#	279547
#	287104
#
# Disc length: 3923 seconds
#
# Revision: 0
# Processed by: cddbd v1.5.1PL2 Copyright (c) Steve Scherf et al.
# Submitted via: dBpowerAMP V4.0
#
DISCID=380f5113
DTITLE=The Mary Vacca Band - Live at the Bean Post
DYEAR=2005
DGENRE=Country
TTITLE0=Folsom Prison
TTITLE1=He'll Have To Go
TTITLE2=Boot Scootin' Boogie
TTITLE3=All You Ever Do
TTITLE4=Cinderella
TTITLE5=Cold, Cold Heart
TTITLE6=Crazy
TTITLE7=Swingin'
TTITLE8=Heartaches By The Number
TTITLE9=Hully Gully
TTITLE10=Alabama Jubilee
TTITLE11=Kansas City
TTITLE12=Old Time Rock n' Roll
TTITLE13=I Overlooked An Orchard
TTITLE14=There Goes My Everything
TTITLE15=Sleepwalkin'
TTITLE16=Last Date
TTITLE17=God Bless America
TTITLE18=Goodnight
EXTD=Recorded Live During the farewell Show Over 500 Free copies made to date
EXTT0=
EXTT1=
EXTT2=
EXTT3=
EXTT4=
EXTT5=
EXTT6=
EXTT7=
EXTT8=
EXTT9=
EXTT10=
EXTT11=
EXTT12=
EXTT13=
EXTT14=
EXTT15=
EXTT16=
EXTT17=
EXTT18=
PLAYORDER=
